<?xml version="1.0" ?><!DOCTYPE svg  PUBLIC '-//W3C//DTD SVG 1.1//EN'  'http://www.w3.org/Graphics/SVG/1.1/DTD/svg11.dtd'><svg enable-background="new 0 0 32 32" height="32px" version="1.1" viewBox="0 0 32 32" width="32px" xml:space="preserve" xmlns="http://www.w3.org/2000/svg" xmlns:xlink="http://www.w3.org/1999/xlink"><g id="love_x2C__care_x2C__hands_x2C__volunteering"><g id="XMLID_937_"><g id="food_x2C__order_x2C__online_food_x2C__dish_x2C__hand_2_"><g id="XMLID_867_"><g id="XMLID_872_"><path d="M19.582,8.55c1.945,1.954,5.103,1.958,7.053,0.008l3.798-4.289l-0.757-0.959       c-1.445-1.83-4.161-1.994-5.815-0.35l0,0c-0.345,0.301-1.002,0.546-1.46,0.546h-4.14c-0.565,0-1.127,0.078-1.671,0.23       l-4.451,1.25L7.695,7.453c-0.482,0.337,0.289,2.5,2.555,1.633c1.197-0.46,2.755-0.964,3.431-1.434l3.386-0.612       c0.438-0.133,1.057,0.025,1.377,0.351L19.582,8.55z" fill="#FFFFFF"/></g><g id="XMLID_871_"><path d="M16.596,3.734L12.14,4.985L7.695,7.453c-0.482,0.337,0.289,2.5,2.555,1.633       c1.197-0.46,2.755-0.964,3.431-1.434l3.386-0.612c0.438-0.133,1.057,0.025,1.377,0.351l1.138,1.158       c0.416,0.417,0.893,0.727,1.396,0.967c1.552,0.28,3.576-0.233,4.776-1.434l4.306-4.334l-0.364-0.455       c-1.458-1.825-4.178-1.981-5.834-0.334l0,0c-0.345,0.301-1.002,0.546-1.459,0.546h-4.146       C17.695,3.505,17.137,3.583,16.596,3.734z" fill="#FFE0B2"/></g><g id="XMLID_870_"><path d="M14.587,7.017h6.15l-0.109,2.497h-3.104C14.587,9.514,14.587,7.433,14.587,7.017z" fill="#FFE0B2"/></g></g></g><g id="food_x2C__order_x2C__online_food_x2C__dish_x2C__hand"><g id="XMLID_517_"><g id="XMLID_584_"><path d="M12.533,23.462c-1.945-1.955-5.103-1.958-7.053-0.008l-3.798,4.289l0.757,0.959       c1.444,1.831,4.161,1.994,5.815,0.35l0,0c0.345-0.3,1.002-0.546,1.46-0.546h4.14c0.565,0,1.127-0.077,1.671-0.23l4.451-1.249       l4.445-2.468c0.482-0.337-0.289-2.5-2.555-1.634c-1.197,0.46-2.755,0.964-3.431,1.434l-3.386,0.612       c-0.438,0.133-1.057-0.025-1.377-0.351L12.533,23.462z" fill="#FFFFFF"/></g><g id="XMLID_580_"><path d="M15.519,28.277l4.457-1.25l4.445-2.468c0.482-0.337-0.289-2.5-2.555-1.634       c-1.197,0.46-2.755,0.964-3.431,1.434l-3.386,0.612c-0.438,0.133-1.057-0.025-1.377-0.351l-1.138-1.158       c-0.416-0.418-0.893-0.728-1.396-0.967c-1.552-0.28-3.576,0.233-4.776,1.434l-4.306,4.333l0.364,0.455       c1.458,1.826,4.178,1.981,5.834,0.334l0,0c0.345-0.3,1.002-0.546,1.459-0.546h4.146C14.42,28.506,14.979,28.429,15.519,28.277z       " fill="#FFE0B2"/></g><g id="XMLID_518_"><path d="M17.528,24.994h-6.15l0.109-2.496h3.104C17.528,22.498,17.528,24.578,17.528,24.994z" fill="#FFE0B2"/></g></g></g><g id="heart_x2C__love_2_"><g id="XMLID_1031_"><path d="M18.365,11.5c-0.983,0-1.851,0.497-2.365,1.253c-0.515-0.756-1.382-1.253-2.365-1.253      c-1.579,0-2.858,1.279-2.858,2.858C10.777,17.708,16,20.5,16,20.5s5.223-2.792,5.223-6.142      C21.223,12.779,19.944,11.5,18.365,11.5z" fill="#FF8A80"/></g><g id="XMLID_1030_"><path d="M18.365,11.5c-0.983,0-1.851,0.497-2.365,1.253c-0.515-0.756-1.382-1.253-2.365-1.253      c-1.579,0-2.858,1.279-2.858,2.858C10.777,17.708,16,20.5,16,20.5s5.223-2.792,5.223-6.142      C21.223,12.779,19.944,11.5,18.365,11.5z" fill="#FFFFFF"/></g><g id="XMLID_1029_"><path d="M21.21,14.07c-0.007-0.026-0.016-0.05-0.023-0.076c-0.493-0.862-1.41-1.45-2.474-1.45      c-0.736,0-1.406,0.278-1.913,0.735c-0.252,0.228-0.644,0.235-0.896,0.007c-0.487-0.442-1.127-0.719-1.832-0.741      c-0.82-0.024-1.581,0.373-2.141,0.973c-0.811,0.87-0.89,1.688-0.75,2.473C12.397,18.568,16,20.5,16,20.5      S21.525,17.547,21.21,14.07z" fill="#FF8A80"/></g><g id="XMLID_1016_"><path d="M20.838,12.95c0.016,0.12,0.037,0.239,0.037,0.363c0,1.603-1.195,3.078-2.442,4.18      c-1.595,1.41-3.983,1.398-5.574-0.017c-0.799-0.711-1.576-1.576-2.026-2.529C11.38,18.029,16,20.5,16,20.5      s5.223-2.792,5.223-6.142C21.223,13.843,21.076,13.367,20.838,12.95z" fill="#F27670"/></g></g></g><g id="XMLID_934_"><g id="XMLID_1015_"><path d="M16,21c-0.081,0-0.162-0.02-0.236-0.059c-0.224-0.12-5.487-2.974-5.487-6.583     c0-1.852,1.506-3.358,3.358-3.358c0.895,0,1.742,0.356,2.365,0.975C16.624,11.356,17.471,11,18.365,11     c1.852,0,3.358,1.506,3.358,3.358c0,3.609-5.263,6.463-5.487,6.583C16.162,20.98,16.081,21,16,21z M13.635,12     c-1.3,0-2.358,1.058-2.358,2.358c0,2.626,3.737,4.989,4.723,5.567c0.986-0.578,4.723-2.94,4.723-5.567     c0-1.3-1.058-2.358-2.358-2.358c-0.781,0-1.511,0.387-1.952,1.035c-0.187,0.273-0.641,0.273-0.827,0     C15.146,12.387,14.416,12,13.635,12z" fill="#455A64"/></g><g id="XMLID_453_"><g id="XMLID_474_"><path d="M17.528,25.494h-6.033c-0.276,0-0.5-0.224-0.5-0.5s0.224-0.5,0.5-0.5h5.489      c-0.191-0.993-0.994-1.496-2.393-1.496H11.17c-0.276,0-0.5-0.224-0.5-0.5s0.224-0.5,0.5-0.5h3.421      c2.185,0,3.438,1.092,3.438,2.996C18.028,25.271,17.805,25.494,17.528,25.494z" fill="#455A64"/></g><g id="XMLID_454_"><path d="M1.558,27.899c-0.127,0-0.255-0.048-0.353-0.146c-0.196-0.194-0.197-0.511-0.002-0.707l3.922-3.946      c1.643-1.641,4.149-2.072,6.24-1.073c0.249,0.119,0.354,0.417,0.235,0.667c-0.119,0.249-0.417,0.355-0.667,0.235      c-1.708-0.817-3.758-0.465-5.1,0.877l-3.921,3.945C1.814,27.85,1.686,27.899,1.558,27.899z" fill="#455A64"/></g><g id="XMLID_480_"><path d="M6.831,31.018c-0.13,0-0.26-0.05-0.358-0.151c-0.192-0.198-0.188-0.514,0.01-0.707l1.443-1.405      c0.484-0.472,1.124-0.731,1.8-0.731h4.134c0.516,0,1.028-0.071,1.524-0.21l4.399-1.251l4.276-2.374      c-0.007-0.138-0.098-0.432-0.357-0.665c-0.389-0.351-0.963-0.396-1.658-0.131c-0.284,0.109-0.589,0.222-0.898,0.335      c-0.92,0.337-1.962,0.72-2.426,1.042c-0.059,0.041-0.125,0.069-0.196,0.082l-0.973,0.176c-0.274,0.047-0.532-0.132-0.581-0.403      c-0.049-0.272,0.131-0.532,0.403-0.581l0.872-0.157c0.587-0.374,1.588-0.741,2.557-1.097c0.304-0.111,0.604-0.222,0.884-0.33      c1.638-0.624,2.717,0.103,3.148,0.914c0.344,0.647,0.292,1.304-0.126,1.596l-4.489,2.495c-0.034,0.019-0.069,0.033-0.106,0.044      l-4.457,1.268c-0.585,0.165-1.189,0.248-1.796,0.248H9.725c-0.414,0-0.806,0.159-1.103,0.448L7.18,30.876      C7.083,30.971,6.957,31.018,6.831,31.018z" fill="#455A64"/></g></g><g id="XMLID_835_"><g id="XMLID_862_"><path d="M20.945,10.014h-3.421c-2.185,0-3.438-1.092-3.438-2.997c0-0.276,0.224-0.5,0.5-0.5h6.033      c0.276,0,0.5,0.224,0.5,0.5s-0.224,0.5-0.5,0.5h-5.489c0.191,0.994,0.994,1.497,2.393,1.497h3.421c0.276,0,0.5,0.224,0.5,0.5      S21.222,10.014,20.945,10.014z" fill="#455A64"/></g><g id="XMLID_857_"><path d="M23.105,10.517c-0.799,0-1.604-0.174-2.355-0.533c-0.249-0.119-0.354-0.417-0.235-0.667      c0.12-0.249,0.417-0.354,0.667-0.235c1.709,0.817,3.759,0.464,5.1-0.877l3.922-3.945c0.195-0.195,0.511-0.197,0.707-0.002      s0.197,0.511,0.002,0.707L26.989,8.91C25.938,9.962,24.53,10.517,23.105,10.517z" fill="#455A64"/></g><g id="XMLID_852_"><path d="M9.253,9.789c-0.984,0-1.654-0.552-1.972-1.149C6.938,7.992,6.99,7.335,7.408,7.043l4.489-2.495      c0.034-0.019,0.069-0.033,0.106-0.044l4.457-1.268c0.586-0.164,1.189-0.247,1.796-0.247h4.134c0.414,0,0.806-0.159,1.103-0.449      l1.442-1.405c0.197-0.192,0.515-0.189,0.707,0.009c0.193,0.198,0.189,0.515-0.009,0.707L24.19,3.256      c-0.485,0.473-1.125,0.732-1.801,0.732h-4.134c-0.515,0-1.028,0.07-1.524,0.209L12.333,5.45L8.057,7.824      c0.007,0.138,0.098,0.432,0.357,0.665c0.39,0.353,0.963,0.396,1.658,0.13c0.282-0.108,0.585-0.22,0.892-0.332      c0.922-0.339,1.968-0.722,2.433-1.045c0.059-0.041,0.125-0.069,0.196-0.082l0.973-0.176c0.272-0.048,0.531,0.131,0.581,0.403      c0.049,0.272-0.131,0.532-0.403,0.581l-0.872,0.157c-0.588,0.375-1.592,0.743-2.564,1.1c-0.302,0.111-0.6,0.22-0.878,0.327      C9.999,9.718,9.606,9.789,9.253,9.789z" fill="#455A64"/></g></g><g id="XMLID_903_"><path d="M8.941,20.236c-0.161,0-0.319-0.078-0.416-0.221C7.527,18.53,7,16.796,7,15     c0-1.291,0.268-2.538,0.796-3.707c0.114-0.251,0.41-0.364,0.662-0.25c0.251,0.114,0.363,0.41,0.25,0.662     C8.238,12.744,8,13.852,8,15c0,1.597,0.469,3.138,1.355,4.458c0.154,0.229,0.093,0.54-0.136,0.694     C9.134,20.209,9.037,20.236,8.941,20.236z" fill="#455A64"/></g><g id="XMLID_894_"><path d="M22.479,21.001c-0.114,0-0.229-0.039-0.323-0.119c-0.21-0.179-0.236-0.494-0.057-0.705     C23.325,18.735,24,16.896,24,15c0-0.875-0.14-1.734-0.417-2.555c-0.088-0.262,0.052-0.545,0.314-0.633     c0.265-0.088,0.545,0.053,0.633,0.314C24.842,13.05,25,14.017,25,15c0,2.133-0.76,4.202-2.14,5.825     C22.762,20.941,22.621,21.001,22.479,21.001z" fill="#455A64"/></g></g></g></svg>